<?xml version="1.0" encoding="utf-8"?>
<!-- Generator: Adobe Illustrator 26.3.0, SVG Export Plug-In . SVG Version: 6.00 Build 0)  -->
<svg version="1.1" xmlns="http://www.w3.org/2000/svg" xmlns:xlink="http://www.w3.org/1999/xlink" x="0px" y="0px"
	 viewBox="0 0 1080 1080" style="enable-background:new 0 0 1080 1080;" xml:space="preserve">
<style type="text/css">
	.st0{display:none;}
	.st1{display:inline;}
	.st2{fill:#FC4B00;}
	.st3{fill:#C1272D;}
	.st4{fill:#FFFFFF;}
	.st5{fill:#FD4C03;}
	.st6{fill:#EED2BF;}
	.st7{fill:#FB4C00;}
	.st8{display:inline;fill:#FD4C01;}
	.st9{display:inline;fill:#D51947;}
	.st10{display:inline;fill:#00FFFF;}
	.st11{display:inline;fill:#FFFFFF;}
	.st12{display:inline;fill:#FFFF00;}
	.st13{fill:#C92A5E;}
</style>
<g id="Capa_1" class="st0">
	<g class="st1">
		<g>
			<path class="st4" d="M127.08,433.5H26v213.96h101.09c59.81,0,109.13-28.43,109.13-101.78v-10.39
				C236.21,461.93,186.89,433.5,127.08,433.5z"/>
			<g>
				<path class="st6" d="M198.47,487.89c-6.05,10.26-11.01,21.17-14.78,32.47c-3.78,11.34-6.35,23.09-7.56,34.99
					c-0.69,6.78-0.99,13.68-0.86,20.56c0.12,6.54,0.63,13.07,1.55,19.48c0.95,6.58,2.24,13.09,3.52,19.61
					c0.25,0.53,2.42,0.02,2.33-0.55c-0.79-5.49-1.83-10.21-2.6-15.51c-0.92-6.41-1.35-13.14-1.47-19.68
					c-0.13-6.89,0.17-13.79,0.86-20.56c1.21-11.89,3.79-23.64,7.56-34.99c3.76-11.3,8.73-22.21,14.78-32.47
					c3-5.09,6.27-10.02,9.8-14.76c1.61-2.17,3.41-4.49,5.13-6.57l-3.05-3.71c-1.72,2.08-3.8,4.77-5.42,6.94
					C204.74,477.87,201.47,482.8,198.47,487.89z"/>
				<path class="st7" d="M63.95,498.1c37.18,21.53,45.72,64.56,19.45,97.3c30.35-28.16,79.31-16.04,96.95,19.59
					c-1.28-6.52-2.57-13.03-3.52-19.61c-0.92-6.41-1.43-12.94-1.55-19.48c-0.13-6.89,0.17-13.78,0.86-20.56
					c1.21-11.89,3.79-23.64,7.56-34.99c3.76-11.3,8.73-22.21,14.78-32.47c3-5.09,6.27-10.02,9.8-14.76c1.61-2.17,3.7-4.86,5.42-6.94
					l-0.54-0.61l-0.52-0.57C172.21,495.91,115.16,511.46,63.95,498.1z"/>
			</g>
		</g>
		<path class="st4" d="M271.21,431.66h38.11v33.08h-38.11V431.66z M273.57,487.79h33.67v157.15h-33.67V487.79z"/>
		<path class="st4" d="M436.92,487.79v32.79h-19.79c-26.29,0-33.08,13.29-33.08,36.92v87.44h-33.68V487.79h33.68v35.74h1.77
			c4.14-27.18,13.59-38.7,34.86-38.7C429.24,484.83,433.67,486.31,436.92,487.79z"/>
		<path class="st4" d="M452.88,570.79v-8.86c0-44.31,24.52-77.69,75.62-77.69c50.81,0,71.78,27.77,71.78,78.57v8.86H486.84v3.54
			c0,29.24,11.52,43.72,41.65,43.72c27.77,0,38.11-12.41,38.7-24.22l0.3-4.43h32.79c-1.18,31.31-22.74,57.9-72.08,57.9
			C475.92,648.19,452.88,615.1,452.88,570.79z M567.19,548.94c-1.77-24.81-10.93-36.92-38.99-36.92
			c-28.36,0-39.29,12.11-41.06,36.92H567.19z"/>
		<path class="st4" d="M738.82,587.93h32.79c-1.18,33.38-22.15,60.26-69.12,60.26c-51.99,0-75.33-33.08-75.33-77.39v-8.86
			c0-44.31,23.34-77.69,75.33-77.69c46.97,0,67.94,26.88,69.12,59.08h-32.79l-0.3-4.43c-0.59-12.7-10.64-24.81-36.04-24.81
			c-29.54,0-40.17,14.47-40.17,43.42v17.72c0,28.95,10.63,43.42,40.17,43.42c25.4,0,35.45-12.7,36.04-26.59L738.82,587.93z"/>
		<path class="st4" d="M812.37,604.76v-88.62h-25.11v-28.36h25.11v-34.56l33.68-7.38v41.95h40.17v28.36h-40.17v88.32
			c0,8.57,3.25,11.82,11.82,11.82h29.24v28.65c-10.04,0.89-21.27,1.77-32.79,1.77C825.07,646.71,812.37,634.3,812.37,604.76z"/>
		<path class="st4" d="M1054,562.08v8.86c0,44.31-23.63,77.39-75.62,77.39c-51.99,0-75.62-33.08-75.62-77.39v-8.86
			c0-44.31,23.63-77.69,75.62-77.69C1030.37,484.39,1054,517.77,1054,562.08z M978.38,618.8c28.95,0,40.47-13.88,40.47-43.42v-17.72
			c0-29.54-11.52-43.42-40.47-43.42c-28.95,0-40.47,13.88-40.47,43.42v17.72C937.92,604.91,949.44,618.8,978.38,618.8z"/>
	</g>
</g>
<g id="Capa_2" class="st0">
</g>
<g id="Capa_3">
	<path class="st13" d="M274.66,454.86c10.45-12.36,18.93-22.58,27.62-32.62c31.21-36.08,62.42-72.17,93.88-108.04
		c2.55-2.91,7-5.75,10.65-5.86c68.99-2.1,137.85-1.22,205.89,12.37c46.37,9.26,91.22,22.75,132.29,47.19
		c112.73,67.07,98.09,214.55,14.22,276.08c-34.98,25.66-74.38,38.29-116.26,45.71c-40.23,7.13-80.76,6.08-121.3,5.55
		c-9.67-0.13-19.33-0.53-29-0.48c-29.93,0.15-51,18.03-58.08,49.5c-1.9,8.46-2.88,17.13-4.69,28.24
		c-19.25-31.84-44.89-54.21-76.3-69.91c-31.25-15.62-64.81-23.51-99.39-30.62c3.26-0.44,6.5-1.04,9.77-1.3
		c31.84-2.58,63.2-7.53,92.43-21.19c30.45-14.23,53.94-35.61,66.52-67.59c0.44-1.12,1.19-2.12,2.86-5.02
		c1.08,8.6,1.93,15.4,2.78,22.21c5.73,45.8,35.89,73.39,81.91,75.35c30.11,1.28,57.89-5.27,81-25.27
		c41.26-35.69,43.12-99.04,4.96-140.7c-29.37-32.07-67.49-47.5-108.65-56.21c-66.51-14.08-133.17-12.22-199.69,0.72
		C284.58,453.64,281.02,453.97,274.66,454.86z"/>
</g>
</svg>
