<?xml version="1.0" encoding="utf-8"?>
<!-- Generator: Adobe Illustrator 26.3.0, SVG Export Plug-In . SVG Version: 6.00 Build 0)  -->
<svg version="1.1" xmlns="http://www.w3.org/2000/svg" xmlns:xlink="http://www.w3.org/1999/xlink" x="0px" y="0px"
	 viewBox="0 0 1080 1080" style="enable-background:new 0 0 1080 1080;" xml:space="preserve">
<style type="text/css">
	.st0{display:none;}
	.st1{display:inline;}
	.st2{fill:#FC4B00;}
	.st3{fill:#C1272D;}
	.st4{fill:#FFFFFF;}
	.st5{fill:#FD4C03;}
	.st6{fill:#EED2BF;}
	.st7{fill:#FB4C00;}
	.st8{display:inline;fill:#FD4C01;}
	.st9{display:inline;fill:#D51947;}
	.st10{display:inline;fill:#00FFFF;}
	.st11{display:inline;fill:#FFFFFF;}
	.st12{display:inline;fill:#FFFF00;}
	.st13{fill:#C92A5E;}
</style>
<g id="Capa_1" class="st0">
	<rect class="st8" width="1080" height="1080"/>
	<g class="st1">
		<path class="st4" d="M528.63,237.56H242.85v604.89h285.78c169.1,0,308.53-80.36,308.53-287.75v-29.38
			C837.15,317.92,697.73,237.56,528.63,237.56z"/>
		<g>
			<path class="st6" d="M730.45,391.31c-17.11,29.01-31.13,59.85-41.78,91.81c-10.68,32.06-17.95,65.28-21.38,98.91
				c-1.96,19.17-2.8,38.67-2.43,58.14c0.35,18.49,1.79,36.95,4.39,55.07c2.68,18.59,6.33,37.02,9.95,55.44
				c0.7,1.49,6.83,0.06,6.59-1.57c-2.24-15.51-5.18-28.87-7.34-43.86c-2.61-18.11-3.82-37.15-4.17-55.65
				c-0.37-19.47,0.47-38.97,2.43-58.14c3.43-33.63,10.71-66.85,21.38-98.91c10.64-31.96,24.67-62.79,41.78-91.81
				c8.48-14.39,17.72-28.32,27.7-41.72c4.56-6.12,9.64-12.69,14.5-18.58l-8.63-10.48c-4.86,5.89-10.75,13.5-15.31,19.62
				C748.17,362.99,738.93,376.93,730.45,391.31z"/>
			<path class="st7" d="M350.14,420.2c105.11,60.87,129.25,182.53,54.99,275.08c85.81-79.61,224.23-45.36,274.08,55.39
				c-3.62-18.42-7.28-36.85-9.95-55.44c-2.61-18.11-4.05-36.57-4.39-55.07c-0.37-19.47,0.47-38.97,2.43-58.14
				c3.43-33.63,10.71-66.85,21.38-98.91c10.64-31.96,24.67-62.79,41.78-91.81c8.48-14.39,17.72-28.32,27.7-41.72
				c4.56-6.12,10.45-13.73,15.31-19.62l-1.53-1.74l-1.46-1.62C656.2,413.98,494.94,457.95,350.14,420.2z"/>
		</g>
	</g>
</g>
<g id="Capa_2" class="st0">
	<rect x="-0.74" y="-1.41" class="st9" width="1080" height="1080"/>
	<g class="st1">
		<path class="st4" d="M75.62,421.01c4.52-5.34,8.19-9.76,11.94-14.1c13.49-15.6,26.99-31.21,40.59-46.71
			c1.1-1.26,3.03-2.48,4.61-2.53c29.83-0.91,59.6-0.53,89.02,5.35c20.05,4,39.44,9.84,57.2,20.4c48.74,29,42.41,92.77,6.15,119.37
			c-15.12,11.1-32.16,16.56-50.27,19.77c-17.39,3.08-34.92,2.63-52.45,2.4c-4.18-0.05-8.36-0.23-12.54-0.21
			c-12.94,0.07-22.05,7.8-25.11,21.4c-0.82,3.66-1.24,7.41-2.03,12.21c-8.32-13.77-19.41-23.44-32.99-30.23
			c-13.51-6.75-28.02-10.17-42.98-13.24c1.41-0.19,2.81-0.45,4.22-0.56c13.77-1.12,27.32-3.26,39.96-9.16
			c13.17-6.15,23.32-15.4,28.76-29.22c0.19-0.48,0.51-0.91,1.24-2.17c0.47,3.72,0.84,6.66,1.2,9.6
			c2.48,19.8,15.52,31.73,35.41,32.58c13.02,0.55,25.03-2.28,35.02-10.93c17.84-15.43,18.65-42.82,2.15-60.84
			c-12.7-13.87-29.18-20.54-46.98-24.31c-28.76-6.09-57.58-5.28-86.34,0.31C79.91,420.49,78.37,420.63,75.62,421.01z"/>
		<path class="st4" d="M408.54,468.38c0,7.69-0.18,14.7,0.08,21.69c0.12,3.32-1.1,4.21-4.16,4.13c-5.64-0.16-11.3-0.04-17.26-0.04
			c-0.12-1.34-0.3-2.37-0.3-3.39c0.03-21.84,0.08-43.67,0.11-65.51c0.01-6.1,2.68-8.84,8.7-8.84c14.16,0,28.32-0.36,42.46,0.15
			c6.08,0.22,12.36,1.5,18.08,3.59c8.84,3.23,13.78,10.22,14.44,19.69c0.69,9.88-2.47,18.06-11.66,23.06
			c-1.65,0.9-3.29,1.8-5.42,2.97c6.88,9.05,13.75,18.08,20.61,27.11c-0.14,0.39-0.29,0.78-0.43,1.17c-4.09,0-8.26-0.53-12.25,0.11
			c-8.86,1.41-14.68-1.9-18.9-9.67c-2.68-4.94-6.39-9.32-9.76-13.87c-0.72-0.97-1.91-2.22-2.91-2.25
			C423.02,468.29,416.04,468.38,408.54,468.38z M408.77,451.49c10.19,0,20.1,0.18,30.01-0.07c5.93-0.14,9.58-3.49,9.85-8.15
			c0.28-4.83-2.73-8.79-8.71-9.13c-10.27-0.58-20.59-0.16-31.14-0.16C408.77,439.77,408.77,445.37,408.77,451.49z"/>
		<path class="st4" d="M810.66,496.54c-11.65-0.29-22.64-2.48-32.43-8.91c-12.87-8.45-17.86-20.98-16.81-35.81
			c1.11-15.64,9.3-26.89,23.88-32.73c16.21-6.5,32.86-6.95,49.37-1.06c18.5,6.6,27.85,21.66,26.31,41.56
			c-1.32,16.95-14.09,30.92-31.95,34.52C822.98,495.33,816.78,495.76,810.66,496.54z M809.85,479.18c4.57-0.65,7.68-0.85,10.67-1.57
			c12.01-2.87,18.74-11.31,18.6-23.05c-0.13-10.91-7.74-19.69-19.39-22.09c-6.82-1.41-13.62-1.21-20.35,0.86
			c-9.45,2.91-15.24,10.13-15.94,20.11c-0.69,9.76,3.84,18.22,12.66,21.95C800.83,477.41,806.09,478.19,809.85,479.18z"/>
		<path class="st4" d="M565.33,476.67c0,6.19,0,11.54,0,17.27c-1.78,0.09-3.36,0.23-4.93,0.23c-23.06,0.01-46.13-0.05-69.19,0.06
			c-3.26,0.02-4.47-0.86-4.45-4.29c0.12-21.71,0.01-43.43,0.05-65.14c0.01-5.72,2.73-8.39,8.29-8.4
			c22.12-0.03,44.24,0.04,66.36-0.11c3.31-0.02,4.26,1.11,4.06,4.19c-0.2,3.09-0.2,6.21,0.01,9.3c0.21,3.01-0.9,3.94-3.91,3.92
			c-15.37-0.12-30.75-0.11-46.13,0c-8.24,0.06-6.81-1.2-7.08,7.1c-0.06,1.72-0.01,3.45-0.01,5.64c3.13,0,5.78,0,8.44,0
			c10.66-0.01,21.31,0.11,31.96-0.1c3.62-0.07,4.6,1.33,3.85,4.52c-0.76,3.28-1.37,6.62-2.55,9.75c-0.38,1-2.36,1.94-3.63,1.96
			c-10.65,0.16-21.31,0.1-31.96,0.1c-1.86,0-3.72,0-6.14,0c0,4.16-0.21,7.91,0.16,11.62c0.09,0.88,2.1,2.21,3.25,2.23
			c9.17,0.2,18.34,0.13,27.51,0.14C547.88,476.68,556.48,476.67,565.33,476.67z"/>
		<path class="st4" d="M648.01,467.74c5.9,2.55,11.54,5,17.44,7.55c-2.99,6.27-7.72,10.17-13.12,13.66
			c-13.67,8.83-44.96,10.23-61.64-2.24c-23.37-17.48-20.75-53.62,5.92-66.27c19.17-9.09,38.93-8.72,57.75,2.28
			c4.73,2.76,8.05,6.93,11.22,11.74c-5.99,2.49-11.4,4.81-16.9,6.92c-0.66,0.25-1.97-0.45-2.65-1.07
			c-10.08-9.14-26.23-11.29-38.05-4.71c-8.48,4.73-11.5,12.41-10.86,21.81c0.63,9.26,5.82,15.27,14.06,18.55
			C624.15,481.14,638.39,477.82,648.01,467.74z"/>
		<path class="st4" d="M702.3,433.81c-11.11,0-21.7,0-32.71,0c0.15-6.59,3.31-11.45,6.21-16.36c0.4-0.68,1.89-1,2.87-1
			c26.43-0.04,52.86-0.02,79.29,0c0.52,0,1.03,0.18,2.45,0.44c-2.77,5.64-5.29,11.05-8.15,16.28c-0.38,0.7-2.45,0.64-3.75,0.65
			c-7.93,0.05-15.87,0.03-24.45,0.03c0,2.31,0,4.01,0,5.7c-0.04,16.59-0.16,33.17-0.05,49.76c0.02,3.57-0.89,5.15-4.73,4.9
			c-4.3-0.28-8.64-0.2-12.94,0.04c-3.26,0.18-4.12-1.1-4.1-4.22c0.12-16.86,0.05-33.71,0.05-50.57
			C702.3,437.74,702.3,436.03,702.3,433.81z"/>
		<path class="st4" d="M347.09,416.59c7.04,0,13.72,0,20.82,0c0.09,1.57,0.25,3,0.25,4.42c-0.01,22.89-0.13,45.78,0.02,68.67
			c0.02,3.65-1.12,4.7-4.58,4.52c-4.57-0.24-9.15-0.12-13.73-0.05c-2.06,0.03-3.24-0.43-3.23-2.89c0.07-24.24,0.06-48.47,0.09-72.71
			C346.72,418.04,346.91,417.53,347.09,416.59z"/>
	</g>
	<path class="st10" d="M368.1,120.12H346.7V42.65h21.41V120.12z"/>
	<path class="st10" d="M474.23,120.12h-21.4l-15.02-25.17h-29.44v25.17H386.9V42.65h56.3c5.56,0,10.38,1.13,14.47,3.38
		c4.08,2.26,7.24,5.36,9.46,9.3c2.22,3.94,3.34,8.44,3.34,13.49c0,5.34-1.3,10.06-3.89,14.16c-2.59,4.1-5.84,7.06-9.75,8.87
		L474.23,120.12z M443.2,78.36c2.51,0,4.57-0.83,6.17-2.48c1.6-1.65,2.41-4,2.41-7.06c0-3.08-0.87-5.45-2.6-7.1
		c-1.73-1.65-3.73-2.48-5.98-2.48h-34.43v19.12H443.2z"/>
	<path class="st10" d="M565.55,120.12h-78.79V42.65h78.79v16.59h-56.92v13.87l44.07,0V89.7l-44.07,0v13.82h56.92V120.12z"/>
	<path class="st10" d="M627.54,123.13c-10.39,0-19.54-1.81-27.46-5.43c-7.92-3.62-14.13-8.58-18.61-14.87s-6.73-13.43-6.73-21.42
		s2.2-15.14,6.6-21.45c4.4-6.3,10.51-11.27,18.32-14.89c7.82-3.62,16.83-5.43,27.04-5.43c6.79,0,13.81,1.4,21.04,4.19
		c7.23,2.8,13.16,6.56,17.77,11.31l-13.2,13.94c-2.96-3.44-6.67-6.17-11.14-8.16c-4.47-2-9.42-3-14.84-3
		c-6.06,0-11.44,0.93-16.16,2.8c-4.72,1.87-8.43,4.55-11.14,8.04c-2.71,3.49-4.07,7.71-4.07,12.65c0,4.91,1.35,9.11,4.07,12.6
		c2.71,3.49,6.42,6.17,11.14,8.04c4.72,1.87,10.1,2.8,16.16,2.8c4.36,0,8.89-0.84,13.57-2.51c4.68-1.67,8.78-4.51,12.3-8.51
		l13.36,14.09c-5.88,5.23-11.99,9.07-18.32,11.53S634.34,123.13,627.54,123.13z"/>
	<path class="st10" d="M722.74,120.12h-18.69V59.24h-33.56V42.65h85.86v16.59h-33.61V120.12z"/>
	<path class="st10" d="M811.19,122.21c-9.16,0-17.51-1.77-25.05-5.32c-7.54-3.54-13.57-8.39-18.08-14.54
		c-4.51-6.15-6.77-13.13-6.77-20.95c0-7.85,2.26-14.85,6.77-21c4.51-6.15,10.54-11,18.08-14.54c7.54-3.54,15.89-5.32,25.05-5.32
		c9.16,0,17.52,1.77,25.08,5.32c7.56,3.54,13.59,8.39,18.11,14.54c4.51,6.15,6.77,13.15,6.77,21c0,7.82-2.26,14.8-6.77,20.95
		c-4.51,6.15-10.55,11-18.11,14.54C828.7,120.44,820.34,122.21,811.19,122.21z M811.19,104.34c5.32,0,10.28-0.91,14.87-2.72
		c4.6-1.81,8.29-4.43,11.09-7.84c2.79-3.42,4.19-7.54,4.19-12.37c0-4.86-1.4-9-4.19-12.42c-2.8-3.42-6.49-6.03-11.09-7.84
		c-4.6-1.81-9.55-2.72-14.87-2.72c-5.29,0-10.23,0.92-14.82,2.76c-4.6,1.84-8.29,4.47-11.09,7.89c-2.8,3.42-4.19,7.52-4.19,12.32
		c0,4.8,1.4,8.91,4.19,12.32c2.79,3.42,6.49,6.04,11.09,7.87C800.96,103.42,805.9,104.34,811.19,104.34z"/>
	
		<rect x="729.11" y="844.88" transform="matrix(0.895 0.4461 -0.4461 0.895 460.3138 -238.2046)" class="st12" width="14" height="27.49"/>
	<g class="st1">
		<path class="st4" d="M75.62,652.03c4.52-5.34,8.19-9.76,11.94-14.1c13.49-15.6,26.99-31.21,40.59-46.71
			c1.1-1.26,3.03-2.48,4.61-2.53c29.83-0.91,59.6-0.53,89.02,5.35c20.05,4,39.44,9.84,57.2,20.4c48.74,29,42.41,92.77,6.15,119.37
			c-15.12,11.1-32.16,16.56-50.27,19.77c-17.39,3.08-34.92,2.63-52.45,2.4c-4.18-0.05-8.36-0.23-12.54-0.21
			c-12.94,0.07-22.05,7.8-25.11,21.4c-0.82,3.66-1.24,7.41-2.03,12.21c-8.32-13.77-19.41-23.44-32.99-30.23
			c-13.51-6.75-28.02-10.17-42.98-13.24c1.41-0.19,2.81-0.45,4.22-0.56c13.77-1.12,27.32-3.26,39.96-9.16
			c13.17-6.15,23.32-15.4,28.76-29.22c0.19-0.48,0.51-0.91,1.24-2.17c0.47,3.72,0.84,6.66,1.2,9.6
			c2.48,19.8,15.52,31.73,35.41,32.58c13.02,0.55,25.03-2.28,35.02-10.93c17.84-15.43,18.65-42.82,2.15-60.84
			c-12.7-13.87-29.18-20.54-46.98-24.31c-28.76-6.09-57.58-5.28-86.34,0.31C79.91,651.5,78.37,651.64,75.62,652.03z"/>
		<path class="st4" d="M353.74,739.99H331.7v-78.26h22.04V739.99z"/>
		<path class="st4" d="M458.17,739.99h-28.44l-16.5-23.5h-19.32v23.5h-21.49v-78.26h51.65c6.11,0,11.41,1.14,15.9,3.42
			c4.49,2.28,7.95,5.41,10.4,9.39c2.44,3.98,3.67,8.52,3.67,13.63c0,5.39-1.42,10.16-4.27,14.3c-2.85,4.14-6.42,7.13-10.71,8.96
			L458.17,739.99z M421.95,697.8c2.76,0,5.02-0.83,6.78-2.5c1.76-1.67,2.65-4.05,2.65-7.13c0-3.11-0.95-5.51-2.85-7.18
			c-1.9-1.67-4.09-2.5-6.57-2.5h-28.03v19.31H421.95z"/>
		<path class="st4" d="M547.1,739.99h-76.33v-78.26h76.33v16.76h-54.39v14.01h45.12v16.76h-45.12v13.97h54.39V739.99z"/>
		<path class="st4" d="M699.58,739.99h-22.2v-59.92h-32.02v-18.34h86.74v18.34h-32.51V739.99z"/>
		<path class="st4" d="M782.85,742.11c-8.86,0-16.93-1.79-24.22-5.37c-7.29-3.58-13.12-8.48-17.48-14.69
			c-4.36-6.21-6.54-13.27-6.54-21.17c0-7.93,2.18-15,6.54-21.22c4.36-6.21,10.19-11.11,17.48-14.69c7.29-3.58,15.37-5.37,24.22-5.37
			c8.86,0,16.94,1.79,24.25,5.37c7.31,3.58,13.15,8.48,17.51,14.69c4.36,6.21,6.54,13.28,6.54,21.22c0,7.9-2.18,14.95-6.54,21.17
			c-4.36,6.21-10.2,11.11-17.51,14.69C799.78,740.31,791.7,742.11,782.85,742.11z M782.85,724.04c5.14,0,9.94-0.92,14.38-2.75
			c4.44-1.83,8.02-4.47,10.72-7.92c2.7-3.45,4.05-7.62,4.05-12.5c0-4.91-1.35-9.09-4.05-12.55c-2.7-3.45-6.28-6.09-10.72-7.92
			s-9.24-2.75-14.38-2.75c-5.11,0-9.89,0.93-14.33,2.79c-4.44,1.86-8.02,4.52-10.72,7.97c-2.7,3.45-4.05,7.6-4.05,12.45
			c0,4.85,1.35,9,4.05,12.45c2.7,3.45,6.28,6.1,10.72,7.95C772.96,723.12,777.73,724.04,782.85,724.04z"/>
		<path class="st4" d="M627.45,718.6c5.64,1.53,10.57,3.41,16.09,4.93c-1.54,2.04-3.42,4.11-3.8,4.51c-1.29,1.33-2.57,2.61-3.99,3.8
			c-4,3.33-8.62,6.1-13.59,7.8c-5.18,1.78-10.62,2.16-16.06,2.14c-8.82-0.03-17.72-1.57-25.89-4.93c-1.03-0.42-2.05-0.88-3.05-1.38
			c-13.67-6.83-20.77-18.11-21.12-33.52c-0.2-8.59,1.76-16.56,6.86-23.54c5.25-7.18,12.2-12.79,20.6-15.83
			c10.66-3.87,23.1-3.77,34.15-1.73c4.32,0.8,8.62,1.72,12.76,3.21c0.99,0.36,1.97,0.75,2.94,1.17c0.92,0.4,1.87,0.79,2.68,1.38
			c1.62,1.18,1.05,3.36,0.94,5.07c-0.29,4.49-0.58,8.97-0.86,13.25c-4.9-2.7-9.98-5.19-15.45-6.5c-17.4-4.17-42.76,1.33-42.19,23.51
			c0.22,8.68,8.4,18.01,17.1,20.77c8.96,2.83,18.87,2.07,27.46-1.77c1.16-0.52,2.86-1.77,4.01-2.31
			C627.12,718.61,627.2,718.62,627.45,718.6z"/>
	</g>
</g>
<g id="Capa_3">
	<g>
		<path class="st13" d="M224.2,599.68h-54.51v-98.42h54.51c10.01,0,19.15,2.03,27.41,6.09c8.26,4.06,14.85,9.78,19.78,17.17
			c4.93,7.39,7.39,16.05,7.39,25.98c0,9.93-2.46,18.59-7.39,25.95c-4.93,7.37-11.52,13.08-19.78,17.14
			C243.35,597.65,234.21,599.68,224.2,599.68z M224.2,578.6c5.77,0,10.98-1.16,15.63-3.48c4.64-2.32,8.34-5.58,11.08-9.78
			c2.75-4.2,4.12-9.15,4.12-14.84s-1.37-10.64-4.12-14.84c-2.75-4.2-6.44-7.47-11.08-9.81c-4.64-2.34-9.85-3.51-15.63-3.51h-30.77
			v56.27H224.2z"/>
		<g>
			<path class="st13" d="M323.38,597.47h-27.1v-96.22h27.1V597.47z"/>
			<path class="st13" d="M451.77,597.47H416.8l-20.29-28.89h-23.75v28.89h-26.42v-96.22h63.5c7.51,0,14.03,1.4,19.54,4.2
				c5.52,2.8,9.78,6.65,12.78,11.55c3,4.9,4.51,10.48,4.51,16.76c0,6.63-1.75,12.49-5.25,17.59c-3.5,5.09-7.89,8.76-13.17,11.01
				L451.77,597.47z M407.24,545.6c3.39,0,6.17-1.03,8.34-3.08c2.17-2.05,3.25-4.97,3.25-8.76c0-3.83-1.17-6.77-3.51-8.82
				c-2.34-2.05-5.03-3.08-8.08-3.08h-34.47v23.74H407.24z"/>
			<path class="st13" d="M561.1,597.47h-93.85v-96.22h93.85v20.61h-66.87v17.23h55.47v20.61h-55.47v17.17h66.87V597.47z"/>
			<path class="st13" d="M748.56,597.47h-27.3V523.8h-39.37v-22.55h106.64v22.55h-39.97V597.47z"/>
			<path class="st13" d="M850.93,600.07c-10.89,0-20.82-2.2-29.78-6.6c-8.97-4.4-16.13-10.42-21.5-18.06
				c-5.36-7.64-8.05-16.31-8.05-26.02c0-9.75,2.68-18.44,8.05-26.08c5.36-7.64,12.53-13.66,21.5-18.06c8.97-4.4,18.89-6.6,29.78-6.6
				c10.89,0,20.82,2.2,29.81,6.6c8.99,4.4,16.16,10.42,21.53,18.06c5.36,7.64,8.05,16.33,8.05,26.08c0,9.71-2.68,18.38-8.05,26.02
				c-5.36,7.64-12.54,13.66-21.53,18.06C871.75,597.87,861.82,600.07,850.93,600.07z M850.93,577.87c6.32,0,12.22-1.12,17.68-3.38
				c5.46-2.25,9.86-5.5,13.18-9.74c3.32-4.24,4.98-9.36,4.98-15.36c0-6.04-1.66-11.18-4.98-15.42c-3.32-4.24-7.72-7.49-13.18-9.74
				c-5.46-2.25-11.36-3.37-17.68-3.37c-6.28,0-12.16,1.14-17.62,3.43c-5.46,2.29-9.86,5.56-13.18,9.8
				c-3.32,4.24-4.98,9.35-4.98,15.31c0,5.96,1.66,11.06,4.98,15.31c3.32,4.24,7.72,7.5,13.18,9.77
				C838.77,576.74,844.64,577.87,850.93,577.87z"/>
			<path class="st13" d="M659.88,571.17c6.93,1.88,13,4.19,19.79,6.07c-1.9,2.51-4.2,5.06-4.68,5.54c-1.59,1.63-3.16,3.21-4.91,4.67
				c-4.91,4.1-10.6,7.49-16.71,9.59c-6.37,2.18-13.05,2.66-19.74,2.63c-10.84-0.04-21.78-1.93-31.83-6.06
				c-1.27-0.52-2.52-1.09-3.75-1.7c-16.8-8.4-25.53-22.26-25.97-41.22c-0.24-10.56,2.16-20.36,8.43-28.93
				c6.45-8.82,14.99-15.72,25.32-19.47c13.11-4.75,28.4-4.63,41.99-2.12c5.31,0.98,10.6,2.11,15.69,3.95
				c1.22,0.44,2.43,0.92,3.61,1.44c1.13,0.49,2.3,0.97,3.3,1.69c1.99,1.45,1.29,4.14,1.15,6.23c-0.36,5.51-0.71,11.03-1.05,16.3
				c-6.02-3.32-12.27-6.38-18.99-7.99c-21.4-5.13-52.56,1.63-51.86,28.91c0.27,10.67,10.32,22.14,21.03,25.53
				c11.02,3.48,23.19,2.55,33.76-2.17c1.43-0.64,3.52-2.17,4.93-2.84C659.47,571.18,659.58,571.2,659.88,571.17z"/>
		</g>
	</g>
</g>
</svg>
