<?xml version="1.0" encoding="utf-8"?>
<!-- Generator: Adobe Illustrator 26.3.0, SVG Export Plug-In . SVG Version: 6.00 Build 0)  -->
<svg version="1.1" xmlns="http://www.w3.org/2000/svg" xmlns:xlink="http://www.w3.org/1999/xlink" x="0px" y="0px"
	 viewBox="0 0 1080 1080" style="enable-background:new 0 0 1080 1080;" xml:space="preserve">
<style type="text/css">
	.st0{display:none;}
	.st1{display:inline;}
	.st2{fill:#FC4B00;}
	.st3{fill:#C1272D;}
	.st4{fill:#FFFFFF;}
	.st5{fill:#FD4C03;}
	.st6{fill:#EED2BF;}
	.st7{fill:#FB4C00;}
	.st8{display:inline;fill:#FD4C01;}
	.st9{display:inline;fill:#D51947;}
	.st10{display:inline;fill:#00FFFF;}
	.st11{display:inline;fill:#FFFFFF;}
	.st12{display:inline;fill:#FFFF00;}
	.st13{display:inline;fill:none;}
	.st14{font-family:'Bristone';}
	.st15{font-size:172px;}
	.st16{fill:#C92A5E;}
</style>
<g id="Capa_1" class="st0">
	<rect class="st8" width="1080" height="1080"/>
	<g class="st1">
		<path class="st4" d="M528.63,237.56H242.85v604.89h285.78c169.1,0,308.53-80.36,308.53-287.75v-29.38
			C837.15,317.92,697.73,237.56,528.63,237.56z"/>
		<g>
			<path class="st6" d="M765.82,554.82c-32.61,8.42-64.33,20.31-94.46,35.38c-30.22,15.12-58.85,33.47-85.06,54.82
				c-14.94,12.17-29.32,25.36-42.83,39.39c-12.83,13.32-24.87,27.39-35.83,42.04c-11.25,15.04-21.7,30.65-32.17,46.24
				c-0.55,1.55,4.79,4.87,5.77,3.55c9.38-12.56,16.75-24.08,25.82-36.2c10.96-14.65,23.57-28.97,36.4-42.29
				c13.51-14.03,27.89-27.22,42.83-39.39c26.2-21.35,54.84-39.7,85.06-54.82c30.12-15.07,61.84-26.96,94.46-35.38
				c16.17-4.17,32.56-7.5,49.08-9.92c7.56-1.11,14.65-2.04,22.25-2.76v-13.34c-7.6,0.72-14.69,1.66-22.25,2.76
				C798.38,547.32,781.99,550.64,765.82,554.82z"/>
			<path class="st7" d="M476.47,306.32c31.28,117.37-37.67,220.46-155.63,233.39c116.97,4.38,190.63,126.48,154.64,232.97
				c10.47-15.59,20.91-31.2,32.17-46.24c10.96-14.65,23-28.72,35.83-42.04c13.51-14.03,27.89-27.22,42.83-39.39
				c26.2-21.35,54.84-39.7,85.06-54.82c30.12-15.07,61.84-26.96,94.46-35.38c16.17-4.17,32.56-7.5,49.08-9.92
				c7.56-1.11,14.65-2.04,22.25-2.76V540v-2.39C694.58,518.59,552.17,435.41,476.47,306.32z"/>
		</g>
	</g>
</g>
<g id="Capa_2" class="st0">
	<rect x="2" class="st9" width="1080" height="1080"/>
	<path class="st11" d="M437.99,387.65h-13.86v-57.46h13.86V387.65z"/>
	<path class="st11" d="M507.95,387.65h-15.88l-11.14-18.67h-17.01v18.67h-13.86v-57.46h34.87c4.13,0,7.7,0.84,10.73,2.51
		c3.03,1.67,5.37,3.97,7.02,6.9c1.65,2.92,2.48,6.26,2.48,10.01c0,3.96-0.96,7.46-2.88,10.5c-1.92,3.04-4.33,5.23-7.23,6.58
		L507.95,387.65z M484.93,356.67c1.86,0,3.39-0.61,4.58-1.84c1.19-1.23,1.79-2.97,1.79-5.23c0-2.29-0.64-4.04-1.93-5.27
		c-1.29-1.23-2.76-1.84-4.44-1.84h-21.01v14.18H484.93z"/>
	<path class="st11" d="M566.26,387.65h-51.24v-57.46h51.24v12.31h-37.38v10.29h31.15v12.31h-31.15v10.26h37.38V387.65z"/>
	<path class="st11" d="M605.16,389.21c-6.95,0-13.08-1.31-18.39-3.94c-5.3-2.63-9.46-6.22-12.47-10.79s-4.51-9.74-4.51-15.54
		s1.47-10.99,4.42-15.56c2.95-4.57,7.04-8.17,12.27-10.8c5.23-2.63,11.27-3.94,18.11-3.94c4.55,0,9.25,1.01,14.09,3.04
		c4.84,2.03,8.81,4.76,11.9,8.2l-8.84,10.11c-1.98-2.5-4.47-4.47-7.46-5.92c-2.99-1.45-6.31-2.17-9.94-2.17
		c-4.06,0-7.66,0.68-10.82,2.03c-3.16,1.36-5.65,3.3-7.46,5.83c-1.82,2.53-2.72,5.59-2.72,9.18c0,3.56,0.91,6.61,2.72,9.14
		c1.82,2.53,4.3,4.48,7.46,5.83c3.16,1.36,6.77,2.03,10.82,2.03c2.92,0,5.95-0.61,9.09-1.82c3.13-1.21,5.88-3.27,8.24-6.17
		l8.95,10.22c-3.94,3.8-8.03,6.58-12.27,8.36C614.11,388.32,609.71,389.21,605.16,389.21z"/>
	<path class="st11" d="M676.45,387.65h-13.86v-45.16h-24.9v-12.31h63.69v12.31h-24.93V387.65z"/>
	<path class="st11" d="M738.8,389.21c-6.41,0-12.26-1.31-17.54-3.94c-5.28-2.63-9.5-6.22-12.66-10.79
		c-3.16-4.56-4.74-9.74-4.74-15.54c0-5.82,1.58-11.02,4.74-15.58c3.16-4.56,7.38-8.16,12.66-10.79c5.28-2.63,11.13-3.94,17.54-3.94
		c6.41,0,12.26,1.31,17.56,3.94c5.29,2.63,9.52,6.22,12.68,10.79c3.16,4.56,4.74,9.75,4.74,15.58c0,5.8-1.58,10.98-4.74,15.54
		c-3.16,4.56-7.39,8.16-12.68,10.79C751.06,387.89,745.21,389.21,738.8,389.21z M738.8,375.95c3.72,0,7.2-0.67,10.41-2.02
		c3.22-1.34,5.8-3.28,7.76-5.82c1.96-2.53,2.94-5.59,2.94-9.18c0-3.61-0.98-6.68-2.94-9.21c-1.96-2.53-4.54-4.47-7.76-5.82
		c-3.22-1.34-6.69-2.02-10.41-2.02c-3.7,0-7.16,0.68-10.38,2.05c-3.22,1.37-5.81,3.32-7.76,5.85c-1.96,2.53-2.94,5.58-2.94,9.14
		c0,3.56,0.98,6.61,2.94,9.14c1.96,2.53,4.54,4.48,7.76,5.83C731.64,375.27,735.1,375.95,738.8,375.95z"/>
	<g class="st1">
		<path class="st4" d="M235.45,128.65c3.35-3.96,6.07-7.24,8.86-10.46c10.01-11.57,20.02-23.15,30.11-34.65
			c0.82-0.93,2.25-1.84,3.42-1.88c22.13-0.67,44.21-0.39,66.03,3.97c14.87,2.97,29.26,7.3,42.43,15.13
			c36.16,21.51,31.46,68.81,4.56,88.55c-11.22,8.23-23.86,12.28-37.29,14.66c-12.9,2.29-25.9,1.95-38.9,1.78
			c-3.1-0.04-6.2-0.17-9.3-0.16c-9.6,0.05-16.36,5.78-18.63,15.88c-0.61,2.71-0.92,5.49-1.5,9.06
			c-6.17-10.21-14.4-17.39-24.47-22.42c-10.02-5.01-20.79-7.54-31.88-9.82c1.04-0.14,2.08-0.33,3.13-0.42
			c10.21-0.83,20.27-2.42,29.64-6.8c9.77-4.57,17.3-11.42,21.33-21.68c0.14-0.36,0.38-0.68,0.92-1.61c0.35,2.76,0.62,4.94,0.89,7.12
			c1.84,14.69,11.51,23.54,26.27,24.17c9.66,0.41,18.57-1.69,25.98-8.1c13.23-11.45,13.83-31.77,1.59-45.13
			c-9.42-10.29-21.65-15.23-34.85-18.03c-21.33-4.52-42.71-3.92-64.05,0.23C238.63,128.26,237.49,128.37,235.45,128.65z"/>
		<g>
			<path class="st4" d="M442.19,182.91h-13.86v-57.46h13.86V182.91z"/>
			<path class="st4" d="M517.41,182.91h-15.88l-11.14-18.67h-17.01v18.67h-13.86v-57.46h34.87c4.13,0,7.7,0.84,10.73,2.51
				c3.03,1.67,5.37,3.97,7.02,6.9c1.65,2.92,2.48,6.26,2.48,10.01c0,3.96-0.96,7.46-2.88,10.5c-1.92,3.04-4.33,5.23-7.23,6.58
				L517.41,182.91z M494.39,151.93c1.86,0,3.39-0.61,4.58-1.84c1.19-1.23,1.79-2.97,1.79-5.23c0-2.29-0.64-4.04-1.93-5.27
				c-1.29-1.23-2.76-1.84-4.44-1.84h-21.01v14.18H494.39z"/>
			<path class="st4" d="M585.13,182.91h-51.24v-57.46h51.24v12.31h-37.38v10.29h31.15v12.31h-31.15v10.26h37.38V182.91z"/>
			<path class="st4" d="M633.51,184.46c-6.95,0-13.08-1.31-18.39-3.94c-5.3-2.63-9.46-6.22-12.47-10.79
				c-3.01-4.56-4.51-9.74-4.51-15.54s1.47-10.99,4.42-15.56c2.95-4.57,7.04-8.17,12.27-10.8c5.23-2.63,11.27-3.94,18.11-3.94
				c4.55,0,9.25,1.01,14.09,3.04c4.84,2.03,8.81,4.76,11.9,8.2l-8.84,10.11c-1.98-2.5-4.47-4.47-7.46-5.92
				c-2.99-1.45-6.31-2.17-9.94-2.17c-4.06,0-7.66,0.68-10.82,2.03c-3.16,1.36-5.65,3.3-7.46,5.83c-1.82,2.53-2.72,5.59-2.72,9.18
				c0,3.56,0.91,6.61,2.72,9.14c1.82,2.53,4.3,4.48,7.46,5.83c3.16,1.36,6.77,2.03,10.82,2.03c2.92,0,5.95-0.61,9.09-1.82
				c3.13-1.21,5.88-3.27,8.24-6.17l8.95,10.22c-3.94,3.8-8.03,6.58-12.27,8.36C642.46,183.57,638.06,184.46,633.51,184.46z"/>
			<path class="st4" d="M706.57,182.91h-13.86v-45.16h-24.9v-12.31h63.69v12.31h-24.93V182.91z"/>
			<path class="st4" d="M772.95,184.46c-6.41,0-12.26-1.31-17.54-3.94c-5.28-2.63-9.5-6.22-12.66-10.79
				c-3.16-4.56-4.74-9.74-4.74-15.54c0-5.82,1.58-11.02,4.74-15.58c3.16-4.56,7.38-8.16,12.66-10.79
				c5.28-2.63,11.13-3.94,17.54-3.94c6.41,0,12.26,1.31,17.56,3.94c5.29,2.63,9.52,6.22,12.68,10.79c3.16,4.56,4.74,9.75,4.74,15.58
				c0,5.8-1.58,10.98-4.74,15.54c-3.16,4.56-7.39,8.16-12.68,10.79C785.21,183.15,779.36,184.46,772.95,184.46z M772.95,171.2
				c3.72,0,7.2-0.67,10.41-2.02s5.8-3.28,7.76-5.82c1.96-2.53,2.94-5.59,2.94-9.18c0-3.61-0.98-6.68-2.94-9.21
				c-1.96-2.53-4.54-4.47-7.76-5.82s-6.69-2.02-10.41-2.02c-3.7,0-7.16,0.68-10.38,2.05c-3.22,1.37-5.81,3.32-7.76,5.85
				c-1.96,2.53-2.94,5.58-2.94,9.14c0,3.56,0.98,6.61,2.94,9.14c1.96,2.53,4.54,4.48,7.76,5.83
				C765.79,170.52,769.25,171.2,772.95,171.2z"/>
		</g>
	</g>
	<path class="st11" d="M235.45,333.32c3.35-3.96,6.07-7.24,8.86-10.46c10.01-11.57,20.02-23.15,30.11-34.65
		c0.82-0.93,2.25-1.84,3.42-1.88c22.13-0.67,44.21-0.39,66.03,3.97c14.87,2.97,29.26,7.3,42.43,15.13
		c36.16,21.51,31.46,68.81,4.56,88.55c-11.22,8.23-23.86,12.28-37.29,14.66c-12.9,2.29-25.9,1.95-38.9,1.78
		c-3.1-0.04-6.2-0.17-9.3-0.16c-9.6,0.05-16.36,5.78-18.63,15.88c-0.61,2.71-0.92,5.49-1.5,9.06c-6.17-10.21-14.4-17.39-24.47-22.42
		c-10.02-5.01-20.79-7.54-31.88-9.82c1.04-0.14,2.08-0.33,3.13-0.42c10.21-0.83,20.27-2.42,29.64-6.8
		c9.77-4.57,17.3-11.42,21.33-21.68c0.14-0.36,0.38-0.68,0.92-1.61c0.35,2.76,0.62,4.94,0.89,7.12
		c1.84,14.69,11.51,23.54,26.27,24.17c9.66,0.41,18.57-1.69,25.98-8.1c13.23-11.45,13.83-31.77,1.59-45.13
		c-9.42-10.29-21.65-15.23-34.85-18.03c-21.33-4.52-42.71-3.92-64.05,0.23C238.63,332.93,237.49,333.03,235.45,333.32z"/>
	<g class="st1">
		<path class="st4" d="M214.86,525c3.35-3.96,6.07-7.24,8.86-10.46c10.01-11.57,20.02-23.15,30.11-34.65
			c0.82-0.93,2.25-1.84,3.42-1.88c22.13-0.67,44.21-0.39,66.03,3.97c14.87,2.97,29.26,7.3,42.43,15.13
			c36.16,21.51,31.46,68.81,4.56,88.55c-11.22,8.23-23.86,12.28-37.29,14.66c-12.9,2.29-25.9,1.95-38.9,1.78
			c-3.1-0.04-6.2-0.17-9.3-0.16c-9.6,0.05-16.36,5.78-18.63,15.88c-0.61,2.71-0.92,5.49-1.5,9.06
			c-6.17-10.21-14.4-17.39-24.47-22.42c-10.02-5.01-20.79-7.54-31.88-9.82c1.04-0.14,2.08-0.33,3.13-0.42
			c10.21-0.83,20.27-2.42,29.64-6.8c9.77-4.57,17.3-11.42,21.33-21.68c0.14-0.36,0.38-0.68,0.92-1.61c0.35,2.76,0.62,4.94,0.89,7.12
			c1.84,14.69,11.51,23.54,26.27,24.17c9.66,0.41,18.57-1.69,25.98-8.1c13.23-11.45,13.83-31.77,1.59-45.13
			c-9.42-10.29-21.65-15.23-34.85-18.03c-21.33-4.52-42.71-3.92-64.05,0.23C218.04,524.6,216.9,524.71,214.86,525z"/>
		<g>
			<path class="st4" d="M420.7,579.25h-15.88v-57.46h15.88V579.25z"/>
			<path class="st4" d="M499.42,579.25h-15.88l-11.14-18.67h-21.84v18.67h-15.93v-57.46h41.76c4.13,0,7.7,0.84,10.73,2.51
				c3.03,1.67,5.37,3.97,7.02,6.9c1.65,2.92,2.48,6.26,2.48,10.01c0,3.96-0.96,7.46-2.88,10.5c-1.92,3.04-4.33,5.23-7.23,6.58
				L499.42,579.25z M476.4,548.27c1.86,0,3.39-0.61,4.58-1.84c1.19-1.23,1.79-2.97,1.79-5.23c0-2.29-0.64-4.04-1.93-5.27
				c-1.29-1.23-2.76-1.84-4.44-1.84h-25.54v14.18H476.4z"/>
			<path class="st4" d="M567.16,579.25h-58.44v-57.46h58.44v12.31h-42.22v10.29l32.69,0v12.31l-32.69,0v10.26h42.22V579.25z"/>
			<path class="st4" d="M613.15,581.48c-7.7,0-14.49-1.34-20.37-4.03c-5.88-2.69-10.48-6.36-13.81-11.03
				c-3.33-4.66-4.99-9.96-4.99-15.89s1.63-11.23,4.9-15.91c3.26-4.68,7.8-8.36,13.59-11.05c5.8-2.69,12.48-4.03,20.06-4.03
				c5.04,0,10.24,1.04,15.61,3.11c5.37,2.07,9.76,4.87,13.18,8.39l-9.79,10.34c-2.19-2.55-4.95-4.57-8.27-6.06
				c-3.32-1.48-6.99-2.22-11.01-2.22c-4.49,0-8.49,0.69-11.99,2.08c-3.5,1.39-6.25,3.38-8.27,5.97c-2.01,2.59-3.02,5.72-3.02,9.38
				c0,3.64,1,6.76,3.02,9.35c2.01,2.59,4.77,4.58,8.27,5.97c3.5,1.39,7.49,2.08,11.99,2.08c3.24,0,6.59-0.62,10.07-1.86
				c3.47-1.24,6.52-3.34,9.13-6.31l9.91,10.45c-4.36,3.88-8.89,6.73-13.59,8.55S618.18,581.48,613.15,581.48z"/>
			<path class="st4" d="M688.95,579.25h-13.86v-45.16h-24.9v-12.31h63.69v12.31h-24.93V579.25z"/>
			<path class="st4" d="M754.56,580.81c-6.79,0-12.99-1.31-18.58-3.94c-5.6-2.63-10.07-6.22-13.41-10.79
				c-3.35-4.56-5.02-9.74-5.02-15.54c0-5.82,1.67-11.02,5.02-15.58c3.35-4.56,7.82-8.16,13.41-10.79
				c5.59-2.63,11.79-3.94,18.58-3.94c6.79,0,12.99,1.31,18.6,3.94c5.61,2.63,10.08,6.22,13.43,10.79c3.35,4.56,5.02,9.75,5.02,15.58
				c0,5.8-1.67,10.98-5.02,15.54c-3.35,4.56-7.82,8.16-13.43,10.79C767.55,579.49,761.35,580.81,754.56,580.81z M754.56,567.55
				c3.95,0,7.62-0.67,11.03-2.02c3.41-1.34,6.15-3.28,8.22-5.82c2.07-2.53,3.11-5.59,3.11-9.18c0-3.61-1.04-6.68-3.11-9.21
				c-2.07-2.53-4.81-4.47-8.22-5.82s-7.09-2.02-11.03-2.02c-3.92,0-7.59,0.68-11,2.05c-3.41,1.37-6.15,3.32-8.22,5.85
				c-2.07,2.53-3.11,5.58-3.11,9.14c0,3.56,1.04,6.61,3.11,9.14c2.07,2.53,4.81,4.48,8.22,5.83
				C746.97,566.87,750.64,567.55,754.56,567.55z"/>
		</g>
	</g>
	<g class="st1">
		<path class="st4" d="M232.32,695.14c3.35-3.96,6.07-7.24,8.86-10.46c10.01-11.57,20.02-23.15,30.11-34.65
			c0.82-0.93,2.25-1.84,3.42-1.88c22.13-0.67,44.21-0.39,66.03,3.97c14.87,2.97,29.26,7.3,42.43,15.13
			c36.16,21.51,31.46,68.81,4.56,88.55c-11.22,8.23-23.86,12.28-37.29,14.66c-12.9,2.29-25.9,1.95-38.9,1.78
			c-3.1-0.04-6.2-0.17-9.3-0.16c-9.6,0.05-16.36,5.78-18.63,15.88c-0.61,2.71-0.92,5.49-1.5,9.06
			c-6.17-10.21-14.4-17.39-24.47-22.42c-10.02-5.01-20.79-7.54-31.88-9.82c1.04-0.14,2.08-0.33,3.13-0.42
			c10.21-0.83,20.27-2.42,29.64-6.8c9.77-4.57,17.3-11.42,21.33-21.68c0.14-0.36,0.38-0.68,0.92-1.61c0.35,2.76,0.62,4.94,0.89,7.12
			c1.84,14.69,11.51,23.54,26.27,24.17c9.66,0.41,18.57-1.69,25.98-8.1c13.23-11.45,13.83-31.77,1.59-45.13
			c-9.42-10.29-21.65-15.23-34.85-18.03c-21.33-4.52-42.71-3.92-64.05,0.23C235.5,694.74,234.36,694.85,232.32,695.14z"/>
		<path class="st4" d="M436.6,749.39h-12.77c-0.86,0-1.55-0.7-1.55-1.55v-54.36c0-0.86,0.7-1.55,1.55-1.55h12.77
			c0.86,0,1.55,0.7,1.55,1.55v54.36C438.15,748.69,437.46,749.39,436.6,749.39z"/>
		<path class="st4" d="M514.06,749.39h-12.17c-0.55,0-1.07-0.29-1.35-0.77l-10.22-17.14c-0.28-0.48-0.8-0.77-1.35-0.77H469.6
			c-0.87,0-1.57,0.7-1.57,1.57v15.53c0,0.87-0.7,1.57-1.57,1.57h-12.78c-0.87,0-1.57-0.7-1.57-1.57V693.5c0-0.87,0.7-1.57,1.57-1.57
			h40.19c4.13,0,7.7,0.84,10.73,2.51c3.03,1.67,5.37,3.97,7.02,6.9c1.65,2.92,2.48,6.26,2.48,10.01c0,3.96-0.96,7.46-2.88,10.5
			c-1.6,2.53-3.53,4.47-5.8,5.82c-0.76,0.45-1.02,1.43-0.55,2.18l10.56,17.15C516.05,748.04,515.29,749.39,514.06,749.39z
			 M493.86,718.41c1.86,0,3.39-0.61,4.58-1.84c1.19-1.23,1.79-2.97,1.79-5.23c0-2.29-0.64-4.04-1.93-5.27
			c-1.29-1.23-2.76-1.84-4.44-1.84h-23.97c-0.87,0-1.57,0.7-1.57,1.57v12.61H493.86z"/>
		<path class="st4" d="M582.69,749.39H528.1c-1.06,0-1.93-0.86-1.93-1.93v-53.61c0-1.06,0.86-1.93,1.93-1.93h54.59
			c1.06,0,1.93,0.86,1.93,1.93v8.46c0,1.06-0.86,1.93-1.93,1.93h-38.37c-1.06,0-1.93,0.86-1.93,1.93v6.44
			c0,1.06,0.86,1.93,1.93,1.93l28.84,0c1.06,0,1.93,0.86,1.93,1.93v8.46c0,1.06-0.86,1.93-1.93,1.93l-28.84,0
			c-1.06,0-1.93,0.86-1.93,1.93v6.4c0,1.06,0.86,1.93,1.93,1.93h38.37c1.06,0,1.93,0.86,1.93,1.93v8.46
			C584.62,748.53,583.75,749.39,582.69,749.39z"/>
		<path class="st4" d="M630.6,751.62c-7.7,0-14.49-1.34-20.37-4.03c-5.88-2.69-10.48-6.36-13.81-11.03
			c-3.33-4.66-4.99-9.96-4.99-15.89c0-5.93,1.63-11.23,4.9-15.91c3.26-4.68,7.8-8.36,13.59-11.05c5.8-2.69,12.48-4.03,20.06-4.03
			c5.04,0,10.24,1.04,15.61,3.11c4.8,1.86,8.83,4.29,12.07,7.3c0.63,0.58,0.66,1.56,0.08,2.18l-7.64,8.07
			c-0.59,0.62-1.57,0.63-2.18,0.03c-2-2.02-4.4-3.65-7.2-4.9c-3.32-1.48-6.99-2.22-11.01-2.22c-4.49,0-8.49,0.69-11.99,2.08
			c-3.5,1.39-6.25,3.38-8.27,5.97c-2.01,2.59-3.02,5.72-3.02,9.38c0,3.64,1,6.76,3.02,9.35c2.01,2.59,4.77,4.58,8.27,5.97
			c3.5,1.39,7.49,2.08,11.99,2.08c3.24,0,6.59-0.62,10.07-1.86c3.01-1.08,5.7-2.8,8.06-5.17c0.6-0.6,1.59-0.59,2.17,0.03l7.7,8.12
			c0.61,0.64,0.54,1.66-0.14,2.23c-3.98,3.34-8.1,5.83-12.36,7.48C640.51,750.71,635.64,751.62,630.6,751.62z"/>
		<path class="st4" d="M704.25,749.39h-9.54c-1.19,0-2.16-0.97-2.16-2.16v-40.84c0-1.19-0.97-2.16-2.16-2.16h-20.57
			c-1.19,0-2.16-0.97-2.16-2.16v-7.98c0-1.19,0.97-2.16,2.16-2.16h59.37c1.19,0,2.16,0.97,2.16,2.16v7.98
			c0,1.19-0.97,2.16-2.16,2.16h-20.61c-1.19,0-2.16,0.97-2.16,2.16v40.84C706.41,748.42,705.44,749.39,704.25,749.39z"/>
		<path class="st4" d="M772.02,750.95c-6.79,0-12.99-1.31-18.58-3.94c-5.6-2.63-10.07-6.22-13.41-10.79
			c-3.35-4.56-5.02-9.74-5.02-15.54c0-5.82,1.67-11.02,5.02-15.58c3.35-4.56,7.82-8.16,13.41-10.79c5.59-2.63,11.79-3.94,18.58-3.94
			c6.79,0,12.99,1.31,18.6,3.94c5.61,2.63,10.08,6.22,13.43,10.79c3.35,4.56,5.02,9.75,5.02,15.58c0,5.8-1.67,10.98-5.02,15.54
			c-3.35,4.56-7.82,8.16-13.43,10.79C785.01,749.63,778.81,750.95,772.02,750.95z M772.02,737.68c3.95,0,7.62-0.67,11.03-2.02
			s6.15-3.28,8.22-5.82c2.07-2.53,3.11-5.59,3.11-9.18c0-3.61-1.04-6.68-3.11-9.21c-2.07-2.53-4.81-4.47-8.22-5.82
			c-3.41-1.34-7.09-2.02-11.03-2.02c-3.92,0-7.59,0.68-11,2.05c-3.41,1.37-6.15,3.32-8.22,5.85c-2.07,2.53-3.11,5.58-3.11,9.14
			c0,3.56,1.04,6.61,3.11,9.14c2.07,2.53,4.81,4.48,8.22,5.83C764.43,737.01,768.09,737.68,772.02,737.68z"/>
	</g>
	<g class="st1">
		<path class="st4" d="M224.24,883.05c3.35-3.96,6.07-7.24,8.86-10.46c10.01-11.57,20.02-23.15,30.11-34.65
			c0.82-0.93,2.24-1.84,3.42-1.88c22.13-0.67,44.21-0.39,66.03,3.97c14.87,2.97,29.26,7.3,42.43,15.13
			c36.16,21.51,31.46,68.81,4.56,88.55c-11.22,8.23-23.86,12.28-37.29,14.66c-12.9,2.29-25.9,1.95-38.9,1.78
			c-3.1-0.04-6.2-0.17-9.3-0.16c-9.6,0.05-16.36,5.78-18.63,15.88c-0.61,2.71-0.92,5.49-1.5,9.06
			c-6.17-10.21-14.4-17.39-24.47-22.42c-10.02-5.01-20.79-7.54-31.88-9.82c1.04-0.14,2.08-0.33,3.13-0.42
			c10.21-0.83,20.27-2.42,29.64-6.8c9.77-4.57,17.3-11.42,21.33-21.68c0.14-0.36,0.38-0.68,0.92-1.61c0.35,2.76,0.62,4.94,0.89,7.12
			c1.84,14.69,11.51,23.54,26.27,24.17c9.66,0.41,18.57-1.69,25.98-8.1c13.23-11.45,13.83-31.77,1.59-45.13
			c-9.42-10.29-21.65-15.23-34.85-18.03c-21.33-4.52-42.71-3.92-64.05,0.23C227.42,882.66,226.28,882.77,224.24,883.05z"/>
		<g>
			<path class="st4" d="M439.29,937.31h-12.77c-0.86,0-1.55-0.7-1.55-1.55V881.4c0-0.86,0.7-1.55,1.55-1.55h12.77
				c0.86,0,1.55,0.7,1.55,1.55v54.36C440.84,936.61,440.14,937.31,439.29,937.31z"/>
			<path class="st4" d="M516.75,937.31h-14.82c-0.55,0-1.07-0.29-1.35-0.77l-12.06-17.14c-0.28-0.48-0.8-0.77-1.35-0.77h-14.89
				c-0.87,0-1.57,0.7-1.57,1.57v15.53c0,0.87-0.7,1.57-1.57,1.57h-12.78c-0.87,0-1.57-0.7-1.57-1.57v-54.32
				c0-0.87,0.7-1.57,1.57-1.57h40.19c4.13,0,7.7,0.84,10.73,2.51c3.03,1.67,5.37,3.97,7.02,6.9c1.65,2.92,2.48,6.26,2.48,10.01
				c0,3.96-0.96,7.46-2.88,10.5c-1.6,2.53-3.53,4.47-5.8,5.82c-0.76,0.45-1.02,1.43-0.55,2.18l10.56,17.15
				C518.73,935.96,517.98,937.31,516.75,937.31z M494.22,906.33c1.86,0,3.39-0.61,4.58-1.84c1.19-1.23,1.79-2.97,1.79-5.23
				c0-2.29-0.64-4.04-1.93-5.27c-1.29-1.23-2.76-1.84-4.44-1.84h-21.64c-0.87,0-1.57,0.7-1.57,1.57v12.61H494.22z"/>
			<path class="st4" d="M585.37,937.31h-54.59c-1.06,0-1.93-0.86-1.93-1.93v-53.61c0-1.06,0.86-1.93,1.93-1.93h54.59
				c1.06,0,1.93,0.86,1.93,1.93v8.46c0,1.06-0.86,1.93-1.93,1.93h-38.37c-1.06,0-1.93,0.86-1.93,1.93v6.44
				c0,1.06,0.86,1.93,1.93,1.93l28.84,0c1.06,0,1.93,0.86,1.93,1.93v8.46c0,1.06-0.86,1.93-1.93,1.93l-28.84,0
				c-1.06,0-1.93,0.86-1.93,1.93v6.4c0,1.06,0.86,1.93,1.93,1.93h38.37c1.06,0,1.93,0.86,1.93,1.93v8.46
				C587.3,936.45,586.44,937.31,585.37,937.31z"/>
			<path class="st4" d="M633.61,939.54c-7.7,0-14.49-1.34-20.37-4.03c-5.88-2.69-10.48-6.36-13.81-11.03
				c-3.33-4.66-4.99-9.96-4.99-15.89s1.63-11.23,4.9-15.91c3.26-4.68,7.79-8.36,13.59-11.05c5.8-2.69,12.48-4.03,20.06-4.03
				c5.04,0,10.24,1.04,15.61,3.11c4.8,1.86,8.83,4.29,12.07,7.3c0.63,0.58,0.66,1.56,0.08,2.18l-7.64,8.07
				c-0.59,0.62-1.57,0.63-2.18,0.03c-2-2.02-4.4-3.65-7.2-4.9c-3.32-1.48-6.99-2.22-11.01-2.22c-4.49,0-8.49,0.69-11.99,2.08
				c-3.5,1.39-6.25,3.38-8.27,5.97c-2.01,2.59-3.02,5.72-3.02,9.38c0,3.64,1,6.76,3.02,9.35c2.01,2.59,4.77,4.58,8.27,5.97
				c3.5,1.39,7.49,2.08,11.99,2.08c3.24,0,6.59-0.62,10.07-1.86c3.01-1.08,5.7-2.8,8.06-5.17c0.6-0.6,1.59-0.59,2.17,0.03l7.7,8.12
				c0.61,0.64,0.54,1.66-0.14,2.23c-3.98,3.34-8.1,5.83-12.36,7.48C643.52,938.63,638.65,939.54,633.61,939.54z"/>
			<path class="st4" d="M776.55,938.86c-6.79,0-12.99-1.31-18.58-3.94c-5.6-2.63-10.07-6.22-13.41-10.79
				c-3.35-4.56-5.02-9.74-5.02-15.54c0-5.82,1.67-11.02,5.02-15.58c3.35-4.56,7.82-8.16,13.41-10.79
				c5.59-2.63,11.79-3.94,18.58-3.94c6.79,0,12.99,1.31,18.6,3.94c5.61,2.63,10.08,6.22,13.43,10.79c3.35,4.56,5.02,9.75,5.02,15.58
				c0,5.8-1.67,10.98-5.02,15.54c-3.35,4.56-7.82,8.16-13.43,10.79C789.54,937.55,783.34,938.86,776.55,938.86z M776.55,925.6
				c3.95,0,7.62-0.67,11.03-2.02c3.41-1.34,6.15-3.28,8.22-5.82c2.07-2.53,3.11-5.59,3.11-9.18c0-3.61-1.04-6.68-3.11-9.21
				c-2.07-2.53-4.81-4.47-8.22-5.82c-3.41-1.34-7.09-2.02-11.03-2.02c-3.92,0-7.59,0.68-11,2.05c-3.41,1.37-6.15,3.32-8.22,5.85
				c-2.07,2.53-3.11,5.58-3.11,9.14c0,3.56,1.04,6.61,3.11,9.14c2.07,2.53,4.81,4.48,8.22,5.83
				C768.96,924.93,772.63,925.6,776.55,925.6z"/>
			<path class="st4" d="M737.45,879.85h-60.18c-0.57,0-1.1,0.32-1.36,0.84l-5.66,11.46c0.44,0,0.44,0,0.69,0h21.69
				c1.52,0,2.76,1.24,2.76,2.76v40.24c0,1.19,0.97,2.16,2.16,2.16h10.87c1.69,0,3.07-1.38,3.07-3.07v-39.76
				c0-1.28,1.05-2.33,2.33-2.33h17.7c0.57,0,1.1-0.32,1.36-0.84l5.68-11.47C738.21,879.84,737.81,879.85,737.45,879.85z"/>
		</g>
	</g>
	<rect x="56.18" y="84.09" class="st13" width="168.31" height="174.22"/>
	<text transform="matrix(1 0 0 1 56.1789 219.6246)" class="st1 st14 st15">1</text>
	<rect x="54.91" y="280.91" class="st13" width="168.31" height="174.22"/>
	<text transform="matrix(1 0 0 1 54.9135 416.4442)" class="st1 st14 st15">2</text>
	<rect x="56.18" y="477.73" class="st13" width="168.31" height="174.22"/>
	<text transform="matrix(1 0 0 1 56.1789 613.2638)" class="st1 st14 st15">3</text>
	<rect x="39.99" y="662.28" class="st13" width="168.31" height="174.22"/>
	<text transform="matrix(1 0 0 1 39.9882 797.8143)" class="st1 st14 st15">4</text>
	<rect x="54.91" y="852.43" class="st13" width="168.31" height="174.22"/>
	<text transform="matrix(1 0 0 1 54.9135 987.9681)" class="st1 st14 st15">5</text>
</g>
<g id="Capa_3">
	<rect x="-5.48" y="-0.27" class="st16" width="1090.96" height="1080"/>
	<g>
		<path class="st4" d="M224.2,599.68h-54.51v-98.42h54.51c10.01,0,19.15,2.03,27.41,6.09c8.26,4.06,14.85,9.78,19.78,17.17
			c4.93,7.39,7.39,16.05,7.39,25.98c0,9.93-2.46,18.59-7.39,25.95c-4.93,7.37-11.52,13.08-19.78,17.14
			C243.35,597.65,234.21,599.68,224.2,599.68z M224.2,578.6c5.77,0,10.98-1.16,15.63-3.48c4.64-2.32,8.34-5.58,11.08-9.78
			c2.75-4.2,4.12-9.15,4.12-14.84s-1.37-10.64-4.12-14.84c-2.75-4.2-6.44-7.47-11.08-9.81c-4.64-2.34-9.85-3.51-15.63-3.51h-30.77
			v56.27H224.2z"/>
		<g>
			<path class="st4" d="M323.38,597.47h-27.1v-96.22h27.1V597.47z"/>
			<path class="st4" d="M451.77,597.47H416.8l-20.29-28.89h-23.75v28.89h-26.42v-96.22h63.5c7.51,0,14.03,1.4,19.54,4.2
				c5.52,2.8,9.78,6.65,12.78,11.55c3,4.9,4.51,10.48,4.51,16.76c0,6.63-1.75,12.49-5.25,17.59c-3.5,5.09-7.89,8.76-13.17,11.01
				L451.77,597.47z M407.24,545.6c3.39,0,6.17-1.03,8.34-3.08c2.17-2.05,3.25-4.97,3.25-8.76c0-3.83-1.17-6.77-3.51-8.82
				c-2.34-2.05-5.03-3.08-8.08-3.08h-34.47v23.74H407.24z"/>
			<path class="st4" d="M561.1,597.47h-93.85v-96.22h93.85v20.61h-66.87v17.23h55.47v20.61h-55.47v17.17h66.87V597.47z"/>
			<path class="st4" d="M748.56,597.47h-27.3V523.8h-39.37v-22.55h106.64v22.55h-39.97V597.47z"/>
			<path class="st4" d="M850.93,600.07c-10.89,0-20.82-2.2-29.78-6.6c-8.97-4.4-16.13-10.42-21.5-18.06
				c-5.36-7.64-8.05-16.31-8.05-26.02c0-9.75,2.68-18.44,8.05-26.08c5.36-7.64,12.53-13.66,21.5-18.06c8.97-4.4,18.89-6.6,29.78-6.6
				c10.89,0,20.82,2.2,29.81,6.6c8.99,4.4,16.16,10.42,21.53,18.06c5.36,7.64,8.05,16.33,8.05,26.08c0,9.71-2.68,18.38-8.05,26.02
				c-5.36,7.64-12.54,13.66-21.53,18.06C871.75,597.87,861.82,600.07,850.93,600.07z M850.93,577.87c6.32,0,12.22-1.12,17.68-3.38
				c5.46-2.25,9.86-5.5,13.18-9.74c3.32-4.24,4.98-9.36,4.98-15.36c0-6.04-1.66-11.18-4.98-15.42c-3.32-4.24-7.72-7.49-13.18-9.74
				c-5.46-2.25-11.36-3.37-17.68-3.37c-6.28,0-12.16,1.14-17.62,3.43c-5.46,2.29-9.86,5.56-13.18,9.8
				c-3.32,4.24-4.98,9.35-4.98,15.31c0,5.96,1.66,11.06,4.98,15.31c3.32,4.24,7.72,7.5,13.18,9.77
				C838.77,576.74,844.64,577.87,850.93,577.87z"/>
			<path class="st4" d="M659.88,571.17c6.93,1.88,13,4.19,19.79,6.07c-1.9,2.51-4.2,5.06-4.68,5.54c-1.59,1.63-3.16,3.21-4.91,4.67
				c-4.91,4.1-10.6,7.49-16.71,9.59c-6.37,2.18-13.05,2.66-19.74,2.63c-10.84-0.04-21.78-1.93-31.83-6.06
				c-1.27-0.52-2.52-1.09-3.75-1.7c-16.8-8.4-25.53-22.26-25.97-41.22c-0.24-10.56,2.16-20.36,8.43-28.93
				c6.45-8.82,14.99-15.72,25.32-19.47c13.11-4.75,28.4-4.63,41.99-2.12c5.31,0.98,10.6,2.11,15.69,3.95
				c1.22,0.44,2.43,0.92,3.61,1.44c1.13,0.49,2.3,0.97,3.3,1.69c1.99,1.45,1.29,4.14,1.15,6.23c-0.36,5.51-0.71,11.03-1.05,16.3
				c-6.02-3.32-12.27-6.38-18.99-7.99c-21.4-5.13-52.56,1.63-51.86,28.91c0.27,10.67,10.32,22.14,21.03,25.53
				c11.02,3.48,23.19,2.55,33.76-2.17c1.43-0.64,3.52-2.17,4.93-2.84C659.47,571.18,659.58,571.2,659.88,571.17z"/>
		</g>
	</g>
</g>
</svg>
